# xmcd
#
# Track frame offsets:
#	150
#	14247
#	24482
#	38940
#	55935
#	69452
#	86200
#	101865
#	130495
#	149960
#	160980
#
# Disc length: 2295 seconds
#
# Revision: 2
# Processed by: cddbd v1.4PL0 Copyright (c) Steve Scherf et al.
# Submitted via: audiograbber 1.81.03
#
DISCID=ac08f50b
DTITLE=Various Artist - Blues Crossroads (ED CD 7066)
DYEAR=1998
DGENRE=Blues
TTITLE0=Rory Block - Big Road Blues
TTITLE1=Mississippi Fred McDowell - Trouble Everywhere I Go
TTITLE2=Roy Book Binder - Friend Like Me
TTITLE3=Johnny Shines and Robert Lockwood Jr - Lonesome Whistle
TTITLE4=Tom Ball and Kenny Sultan - Automobile Mechanic
TTITLE5=Paul Geremia - Shuckin' Sugar Blues
TTITLE6=George Thorogood - John Hardy
TTITLE7=Cephas and Wiggins - Stagger Lee
TTITLE8=Tony Furtado - Mudville
TTITLE9=Angela Strehli - Going To That City
TTITLE10=Etta Baker - Police Dog Blues
EXTD=EasyDisc 7066\nReleased: June 1998\n© 1997
EXTT0=
EXTT1=
EXTT2=
EXTT3=
EXTT4=
EXTT5=
EXTT6=
EXTT7=
EXTT8=
EXTT9=
EXTT10=
PLAYORDER=
